<svg xmlns="http://www.w3.org/2000/svg" width="256" height="247.742" viewBox="0 0 256 247.742" fill="none"><path x="0.651367" width="30" height="30" rx="15" fill="#2C4364" d="M129.25 0a123.87 123.87 0 0 1 123.872 123.871 123.87 123.87 0 0 1 -123.872 123.871A123.87 123.87 0 0 1 5.379 123.871 123.87 123.87 0 0 1 129.25 0"/><path d="M254.175 110.6v34.981h-0.05l-0.083 -0.033 -118.47 -83.802c-2.758 -2.031 -5.822 -3.716 -9.125 -4.566 -3.716 -0.941 -8.027 -0.47 -10.678 2.543a10.8 10.8 0 0 0 -1.767 2.865 12.45 12.45 0 0 0 -0.702 3.072q-0.495 3.716 1.569 6.813 1.445 2.147 3.361 3.98 2.973 2.865 6.375 5.492a388.5 388.5 0 0 0 19.069 13.659q6.904 4.691 19.398 13.114c13.527 9.133 24.601 22.099 28.73 38.177a55.07 55.07 0 0 1 -1.94 33.214c-7.763 20.257 -26.046 34.304 -47.137 38.325a68.5 68.5 0 0 1 -17.92 0.999c-12.073 -0.875 -23.981 -4.476 -33.561 -11.562a52.85 52.85 0 0 1 -17.308 -21.925c-5.367 -12.437 -6.375 -26.401 -4.756 -39.771l0.247 -1.899q0.62 -4.253 0.116 -8.588c-0.421 -3.791 -1.627 -8.688 -5.26 -10.62 -2.659 -1.42 -5.995 -1.692 -9.002 -1.561 -5.492 0.247 -10.975 1.528 -16.203 3.188q-6.92 2.196 -13.741 5.228 -10.488 4.641 -21.009 9.265v-31.357l14.659 -6.16q4.583 -1.932 7.143 -2.825c6.772 -2.362 13.552 -4.221 20.563 -5.252 11.52 -1.685 23.66 -0.776 33.619 5.748a36.925 36.925 0 0 1 13.518 15.691c4.013 8.688 5.186 18.721 4.294 28.193q-0.083 0.826 -0.487 3.965a57.85 57.85 0 0 0 0.017 15.921c0.743 5.037 2.395 10.017 5.343 14.146q4.294 6.028 11.479 8.944a41.25 41.25 0 0 0 13.147 2.767 39.6 39.6 0 0 0 14.196 -1.709 34.275 34.275 0 0 0 18.762 -14.245c4.013 -6.375 5.434 -13.924 3.436 -21.174 -2.172 -7.87 -7.548 -14.229 -13.849 -19.159q-1.437 -1.115 -4.897 -3.453l-21.009 -14.196c-7.597 -5.17 -15.171 -10.405 -22.049 -16.219 -4.484 -3.782 -8.695 -8.126 -11.859 -13.089a35.82 35.82 0 0 1 -5.516 -15.508 47.05 47.05 0 0 1 1.528 -17.259c4.245 -13.395 14.781 -23.131 28.605 -26.012 13.329 -2.758 26.988 1.635 37.599 9.753q1.544 1.189 3.03 2.237 49.276 34.849 98.576 69.674" fill="white"/></svg>