<svg width="228" height="48" viewBox="0 0 228 48" fill="none" xmlns="http://www.w3.org/2000/svg">
<path d="M88.0295 25.0285C87.6474 15.0252 95.0919 7.60455 105.003 8.48476C107.933 8.74633 110.513 9.6688 112.744 11.2518C119.158 15.8099 120.68 24.7554 117.514 31.5585C113.56 40.0537 102.85 42.4558 95.1019 37.8193C95.0869 37.8102 95.0698 37.8052 95.0523 37.8049C95.0347 37.8047 95.0172 37.8092 95.0019 37.8179C94.9867 37.8266 94.9738 37.839 94.965 37.8542C94.9562 37.8695 94.9519 37.887 94.952 37.9046V47.3006C94.9519 47.3412 94.9358 47.3804 94.907 47.4092C94.8782 47.4379 94.8391 47.4541 94.7984 47.4542H88.2341C88.1979 47.4541 88.163 47.4398 88.1374 47.4142C88.1119 47.3886 88.0975 47.3537 88.0975 47.3176C88.1009 35.3662 88.1898 29.1704 88.0295 25.0285ZM17.9907 1.06417C21.4721 -0.000926122 25.1151 1.01519 27.9831 3.16354C28.3743 3.45693 28.7136 3.70518 29.0013 3.90786C31.5923 5.7306 38.4911 10.5879 49.6975 18.4798C49.7049 18.4851 49.7112 18.4921 49.7155 18.5001C49.7197 18.5083 49.7217 18.5173 49.7218 18.5265V26.9722C49.7219 26.9781 49.7204 26.9839 49.7175 26.9889C49.7145 26.9939 49.71 26.9978 49.7048 27.0006C49.6996 27.0033 49.6938 27.0046 49.6878 27.0042C49.6818 27.0039 49.6758 27.0019 49.6708 26.9986C40.2574 20.3696 31.8966 14.4824 24.5887 9.3367C24.0328 8.94447 23.5471 8.53399 22.9391 8.20022C21.7911 7.57306 20.1636 7.25736 19.1845 8.22987C18.7416 8.67135 18.5023 9.2685 18.4668 10.021C18.4342 10.7099 18.6721 11.3346 19.1802 11.8952C19.97 12.7658 20.8416 13.4431 21.8313 14.1691C24.3602 16.0252 27.0582 17.7983 29.686 19.5523C30.9276 20.3808 31.8312 21.0394 32.3968 21.5284C35.2371 23.9861 37.3493 27.1657 37.8776 30.9341C38.3006 33.9573 37.6203 37.0253 36.0641 39.6254C33.5947 43.752 29.2351 46.3511 24.4834 46.9134C20.8894 47.3386 17.053 46.6849 14.0192 44.7864C8.50531 41.3358 6.85134 34.7099 7.82507 28.5752C8.03447 27.2614 8.13956 26.3068 7.57518 25.2364C6.92462 24.0044 5.59048 23.6546 4.31168 23.6738C3.07293 23.6915 1.79515 23.9061 0.478447 24.3178C0.394825 24.344 0.257303 24.3824 0.0659698 24.4328C0.058165 24.4347 0.049846 24.4347 0.0419808 24.4331C0.0342092 24.4315 0.0269443 24.4282 0.0206573 24.4234C0.0143178 24.4186 0.00888185 24.4125 0.005331 24.4054C0.00180053 24.3984 6.44614e-05 24.3906 1.16475e-07 24.3828V17.4963C-3.03228e-05 17.4788 0.0059064 17.4618 0.0166591 17.448C0.0274485 17.4341 0.0425932 17.4243 0.0596393 17.42C2.74482 16.7333 5.85848 16.4438 8.51708 17.4133C12.042 18.6975 14.0818 21.5806 14.6802 25.2267C14.9152 26.6544 14.9377 28.1415 14.7379 29.584C14.2 33.4779 14.7666 38.0817 19.1292 39.5391C21.6113 40.3683 24.3899 40.3004 26.7317 39.1227C28.5888 38.1872 30.1315 36.5233 30.7395 34.4908C31.7652 31.0583 29.621 27.949 26.888 26.093C23.6224 23.8756 20.5769 21.9078 17.4793 19.6383C16.0669 18.6043 14.8761 17.5465 13.9066 16.4651C11.9861 14.3228 11.2036 11.8054 11.5593 8.91256C11.6841 7.9034 11.9073 7.02447 12.229 6.27611C13.3165 3.74614 15.347 1.87312 17.9907 1.06417ZM68.8247 6.42071C73.3179 5.7998 78.3093 7.04854 81.1377 10.798C82.4887 12.5903 83.1721 14.5897 83.188 16.7959C83.188 16.8538 83.1654 16.9093 83.1251 16.9502C83.0848 16.9911 83.0301 17.0142 82.9732 17.0142H76.832C76.7774 17.0142 76.7243 16.9958 76.681 16.9619C76.6378 16.9279 76.6067 16.8802 76.5931 16.8266C75.7947 13.6423 73.6862 12.1308 70.2677 12.2923C68.1115 12.3913 65.9349 13.8925 66.1396 16.2602C66.2726 17.8159 67.6509 18.8735 69.1009 19.1772C71.614 19.7003 73.1972 20.0232 73.85 20.1461C79.128 21.1423 83.4882 24.3768 83.3756 30.2074C83.3006 34.131 80.5882 37.6521 76.9239 39.0987C72.6661 40.784 66.9447 40.47 63.0963 38.0102C59.8279 35.9199 58.0991 32.9128 57.9104 28.9893C57.9085 28.9502 57.9146 28.9111 57.9283 28.8744C57.9421 28.8376 57.9632 28.8038 57.9903 28.7754C58.0174 28.7471 58.0499 28.7245 58.0859 28.7091C58.122 28.6937 58.161 28.6858 58.2002 28.6858H64.5053C64.5593 28.6858 64.6115 28.7049 64.6533 28.7398C64.695 28.7746 64.7236 28.8233 64.7339 28.877C65.3185 32.0157 67.2484 33.7431 70.5235 34.0593C72.0588 34.2094 73.3916 33.9149 74.522 33.1757C76.436 31.9236 76.542 29.1224 74.6007 27.8362C73.9866 27.4314 73.3315 27.153 72.6356 27.0006C68.1321 26.0146 65.1603 25.721 62.349 23.5512C58.2106 20.3612 57.8626 14.5374 61.1139 10.5968C63.0427 8.2586 65.6131 6.86652 68.8247 6.42071ZM178.049 25.7175C177.261 14.7658 185.705 6.23647 196.8 8.91123C204.705 10.815 208.021 18.3653 207.1 26.069C207.095 26.1133 207.073 26.1543 207.04 26.1839C207.007 26.2135 206.964 26.2295 206.919 26.2293H185.36C185.331 26.2291 185.303 26.2353 185.276 26.2469C185.25 26.2586 185.226 26.2757 185.206 26.2972C185.187 26.3187 185.172 26.3442 185.163 26.3719C185.153 26.3995 185.15 26.429 185.152 26.4582C185.596 31.3027 189.396 34.2745 194.21 33.9504C196.385 33.8025 198.157 32.9074 199.526 31.2653C199.564 31.2203 199.612 31.1841 199.665 31.1593C199.719 31.1346 199.778 31.1219 199.836 31.122H206.278C206.314 31.1217 206.35 31.1302 206.382 31.147C206.414 31.1638 206.442 31.1883 206.463 31.2183C206.483 31.2483 206.496 31.2828 206.5 31.3189C206.504 31.3551 206.499 31.3917 206.486 31.4255C204.607 36.186 201.246 38.9997 196.404 39.8663C186.858 41.5721 178.745 35.3523 178.049 25.7175ZM138.367 8.42345C147.534 8.43034 153.911 15.3528 153.904 24.2882C153.897 33.2236 147.51 40.1393 138.343 40.1325C129.175 40.1257 122.799 33.1996 122.805 24.2642C122.812 15.3288 129.199 8.41665 138.367 8.42345ZM221.538 0.221558C221.588 0.221558 221.636 0.241357 221.671 0.276532C221.706 0.311701 221.726 0.359428 221.726 0.409138V9.19443C221.726 9.23423 221.742 9.27256 221.77 9.30071C221.798 9.32877 221.837 9.34467 221.876 9.34469H227.724C227.778 9.34474 227.83 9.36597 227.869 9.40367C227.907 9.44141 227.929 9.49258 227.929 9.54593V15.4689C227.929 15.5222 227.907 15.5734 227.869 15.6111C227.83 15.6488 227.778 15.6701 227.724 15.6701H221.941C221.886 15.6701 221.833 15.6921 221.794 15.7311C221.755 15.7701 221.733 15.8229 221.733 15.878C221.715 24.7531 221.723 29.5264 221.757 30.1974C221.934 33.7046 225.278 33.3088 227.796 33.0631C227.823 33.0608 227.85 33.0639 227.875 33.0724C227.901 33.081 227.925 33.0948 227.944 33.1128C227.964 33.1307 227.98 33.1527 227.991 33.1771C228.002 33.2014 228.007 33.2278 228.007 33.2544V38.7948C228.007 38.8392 227.993 38.8827 227.966 38.9184C227.939 38.9541 227.9 38.9801 227.857 38.9927C221.504 40.8589 214.633 38.5391 214.623 30.8968C214.618 26.598 214.617 21.561 214.62 15.7861C214.62 15.771 214.617 15.7558 214.612 15.7417C214.606 15.7277 214.598 15.7149 214.588 15.7041C214.577 15.6933 214.564 15.6846 214.551 15.6788C214.537 15.673 214.522 15.6701 214.507 15.6701H209.26C209.21 15.6701 209.162 15.6503 209.127 15.6151C209.092 15.58 209.072 15.5322 209.072 15.4825V9.56293C209.072 9.50767 209.094 9.45435 209.132 9.41433C209.171 9.37441 209.224 9.35067 209.28 9.34803C209.969 9.32073 211.075 9.40272 211.921 9.21509C214.715 8.59415 215.315 6.37985 215.254 3.68463C215.236 2.90902 215.233 1.82268 215.244 0.42613C215.245 0.371586 215.267 0.31946 215.306 0.281197C215.345 0.242947 215.397 0.22158 215.452 0.221558H221.538ZM165.384 13.739C167.281 9.96561 171.638 8.44738 175.657 9.13312C175.697 9.13958 175.733 9.15986 175.759 9.19043C175.786 9.22098 175.8 9.25984 175.8 9.30005V16.2842C175.801 16.3026 175.797 16.3207 175.789 16.3375C175.782 16.3543 175.77 16.3694 175.756 16.3815C175.742 16.3935 175.726 16.4025 175.708 16.4074C175.69 16.4124 175.672 16.4134 175.654 16.4104C169.591 15.4518 165.411 18.1708 165.415 24.5883C165.419 30.2132 165.415 35.0385 165.401 39.0644C165.401 39.1024 165.386 39.1388 165.358 39.1656C165.331 39.1925 165.294 39.2076 165.255 39.2076H158.387C158.351 39.2076 158.316 39.1932 158.29 39.1676C158.265 39.1421 158.25 39.1074 158.25 39.0714V9.56626C158.25 9.50753 158.274 9.45123 158.315 9.40966C158.357 9.36809 158.413 9.34471 158.472 9.34469H165.012C165.066 9.34469 165.117 9.36593 165.155 9.40367C165.192 9.44141 165.214 9.49257 165.214 9.54593V13.7137C165.215 13.7293 165.221 13.7444 165.23 13.7573C165.242 13.7745 165.261 13.787 165.281 13.792C165.302 13.7969 165.324 13.794 165.343 13.7843C165.361 13.7746 165.376 13.7586 165.384 13.739ZM103.502 14.8718C98.1043 14.8889 95.1632 19.2899 95.1769 24.3188C95.1939 29.3511 98.1556 33.7354 103.553 33.7218C108.95 33.7081 111.891 29.3034 111.878 24.2745C111.864 19.2421 108.899 14.8582 103.502 14.8718ZM138.309 14.8718C132.911 14.8855 129.97 19.2899 129.984 24.3188C129.997 29.3511 132.962 33.7388 138.36 33.7218C143.757 33.7082 146.698 29.3068 146.684 24.2745C146.671 19.2422 143.706 14.8583 138.309 14.8718ZM192.559 14.3907C191.623 14.3937 190.697 14.5664 189.834 14.8991C188.971 15.2318 188.187 15.7177 187.527 16.3295C186.867 16.9412 186.345 17.6668 185.99 18.4645C185.634 19.2622 185.453 20.1166 185.456 20.9787V20.9993C185.456 21.0011 185.456 21.0028 185.458 21.004C185.459 21.0053 185.461 21.006 185.463 21.006L200.024 20.9583C200.026 20.9583 200.027 20.9575 200.029 20.9564C200.03 20.9551 200.031 20.9532 200.031 20.9514V20.931C200.025 19.1903 199.269 17.5233 197.929 16.2968C196.59 15.0703 194.776 14.3847 192.887 14.3907H192.559Z" fill="#2E4363"/>
</svg>
